<svg xmlns="http://www.w3.org/2000/svg" width="512" height="512" viewBox="0 0 512 512" version="1.1"><path d="M 83.495 218.500 L 83.500 372.500 170.500 372.508 L 257.500 372.516 170.753 372.253 L 84.006 371.989 83.748 218.245 L 83.490 64.500 83.495 218.500 M 211.446 142.500 C 211.447 160.100, 211.583 167.159, 211.749 158.187 C 211.914 149.215, 211.914 134.815, 211.748 126.187 C 211.581 117.559, 211.446 124.900, 211.446 142.500 M 275.446 142.500 C 275.447 160.100, 275.583 167.159, 275.749 158.187 C 275.914 149.215, 275.914 134.815, 275.748 126.187 C 275.581 117.559, 275.446 124.900, 275.446 142.500 M 227.460 142 L 227.500 158.500 243.500 158.500 L 259.500 158.500 259.538 142.249 L 259.577 125.998 259.264 141.999 L 258.950 158 243.500 158 L 228.050 158 227.735 141.750 L 227.421 125.500 227.460 142 M 132.250 135.728 C 134.313 135.944, 137.688 135.944, 139.750 135.728 C 141.813 135.513, 140.125 135.336, 136 135.336 C 131.875 135.336, 130.188 135.513, 132.250 135.728 M 189.229 135.741 L 195.959 136.090 196.251 156.295 L 196.544 176.500 196.772 155.750 L 197 135 189.750 135.196 L 182.500 135.392 189.229 135.741 M 236.432 136.316 C 236.135 137.090, 236.056 140.374, 236.257 143.612 L 236.622 149.500 236.811 142.750 L 237 136 243.454 136 L 249.909 136 250.273 142.250 L 250.637 148.500 250.568 142 L 250.500 135.500 243.736 135.204 C 238.637 134.981, 236.840 135.254, 236.432 136.316 M 58.282 175.110 C 52.171 177.459, 45.088 183.961, 41.912 190.137 C 38.771 196.246, 38.132 207.871, 40.539 215.119 C 42.016 219.563, 44.182 222.388, 53.161 231.577 C 59.122 237.677, 64 242.969, 64 243.335 C 64 243.701, 63.212 244.004, 62.250 244.010 C 58.615 244.030, 50.340 248.872, 46.161 253.423 C 38.293 261.992, 35.714 271.430, 38.388 281.869 C 39.253 285.247, 40.722 289.247, 41.652 290.756 C 44.108 294.742, 58.051 308.908, 61.112 310.527 L 63.725 311.909 59.396 316.558 C 51.294 325.258, 48.822 338.105, 53.068 349.452 C 54.553 353.421, 57.258 357.235, 62.672 362.989 C 66.817 367.395, 70.611 371, 71.104 371 C 71.626 371, 72 329.682, 72 272 L 72 173 67.750 173.052 C 65.412 173.081, 61.152 174.007, 58.282 175.110 M 135.400 188.500 C 135.401 196.750, 135.556 199.992, 135.744 195.704 C 135.932 191.417, 135.931 184.667, 135.742 180.704 C 135.552 176.742, 135.399 180.250, 135.400 188.500 M 261.454 185.734 L 274.910 186.056 275.273 192.278 L 275.637 198.500 275.568 192 L 275.500 185.500 261.749 185.456 L 247.997 185.412 261.454 185.734 M 215.954 186.733 L 228.910 187.057 229.285 193.779 L 229.660 200.500 229.580 193.500 L 229.500 186.500 216.249 186.455 L 202.997 186.409 215.954 186.733 M 169.336 196 C 169.336 200.125, 169.513 201.813, 169.728 199.750 C 169.944 197.688, 169.944 194.313, 169.728 192.250 C 169.513 190.188, 169.336 191.875, 169.336 196 M 205.728 200.722 C 207.503 200.943, 210.653 200.946, 212.728 200.730 C 214.802 200.513, 213.350 200.333, 209.500 200.328 C 205.650 200.324, 203.952 200.501, 205.728 200.722 M 189.705 202.726 L 195.911 203.089 196.205 209.795 L 196.500 216.500 203 216.568 L 209.500 216.637 203.295 216.274 L 197.089 215.911 196.795 209.205 L 196.500 202.500 190 202.432 L 183.500 202.363 189.705 202.726 M 261.415 215.362 C 261.127 216.111, 261.056 219.374, 261.257 222.612 L 261.622 228.500 261.811 221.796 L 262 215.091 268.750 214.742 L 275.500 214.392 268.719 214.196 C 263.777 214.053, 261.795 214.370, 261.415 215.362 M 130.250 217.747 C 137.263 217.919, 148.738 217.919, 155.750 217.747 C 162.763 217.575, 157.025 217.435, 143 217.435 C 128.975 217.435, 123.238 217.575, 130.250 217.747 M 236.750 224.706 C 237.988 224.944, 240.012 224.944, 241.250 224.706 C 242.488 224.467, 241.475 224.272, 239 224.272 C 236.525 224.272, 235.512 224.467, 236.750 224.706 M 307.012 249.966 L 307 276.432 301.250 270.992 C 298.087 268, 306.140 276.273, 319.144 289.377 C 339.970 310.362, 343.070 313.120, 345.144 312.514 C 347.929 311.701, 351 308.411, 351 306.241 C 351 305.395, 344.250 297.862, 336 289.500 L 321 274.297 321 256.403 L 321 238.510 359.058 276.505 C 379.990 297.402, 400.219 318.130, 404.011 322.567 C 412.144 332.082, 420.591 345.214, 424.507 354.429 C 426.049 358.056, 427.498 360.835, 427.728 360.605 C 428.638 359.696, 420.596 344.078, 414.319 334.563 C 408.505 325.752, 401.420 318.219, 357.352 274 L 307.024 223.500 307.012 249.966 M 196.336 237 C 196.336 241.125, 196.513 242.813, 196.728 240.750 C 196.944 238.688, 196.944 235.313, 196.728 233.250 C 196.513 231.188, 196.336 232.875, 196.336 237 M 127.750 233.744 C 132.287 233.929, 139.713 233.929, 144.250 233.744 C 148.787 233.559, 145.075 233.407, 136 233.407 C 126.925 233.407, 123.213 233.559, 127.750 233.744 M 132.250 256.728 C 134.313 256.944, 137.688 256.944, 139.750 256.728 C 141.813 256.513, 140.125 256.336, 136 256.336 C 131.875 256.336, 130.188 256.513, 132.250 256.728 M 186.250 257.728 C 188.313 257.944, 191.688 257.944, 193.750 257.728 C 195.813 257.513, 194.125 257.336, 190 257.336 C 185.875 257.336, 184.188 257.513, 186.250 257.728 M 119.750 281.748 C 128.688 281.914, 143.313 281.914, 152.250 281.748 C 161.188 281.582, 153.875 281.447, 136 281.447 C 118.125 281.447, 110.813 281.582, 119.750 281.748 M 428.019 362.250 C 428.119 363.572, 432.858 377.214, 432.919 376.355 C 433.027 374.824, 429.044 362, 428.460 362 C 428.207 362, 428.009 362.113, 428.019 362.250 M 433.218 379.500 C 433.228 380.600, 433.580 382.850, 434 384.500 C 434.686 387.195, 434.765 387.246, 434.782 385 C 434.792 383.625, 434.440 381.375, 434 380 C 433.373 378.041, 433.203 377.933, 433.218 379.500 M 435.232 391 C 435.232 392.925, 435.438 393.712, 435.689 392.750 C 435.941 391.788, 435.941 390.212, 435.689 389.250 C 435.438 388.288, 435.232 389.075, 435.232 391 M 436.199 401.676 L 436 408.851 446.021 416.114 C 451.532 420.108, 455.920 423.696, 455.771 424.088 C 455.622 424.480, 451.900 428.929, 447.500 433.975 C 433.102 450.487, 412.077 468.169, 391.349 481.197 L 381.622 487.310 368.871 486.176 C 353.064 484.770, 343.467 482.849, 330.144 478.424 C 306.709 470.641, 286.871 456.921, 271.692 438 C 270.148 436.075, 269.160 435.059, 269.497 435.743 C 269.981 436.726, 256.109 437.040, 203.160 437.243 L 136.210 437.500 195.557 468.467 C 228.198 485.499, 258.053 500.691, 261.901 502.227 C 277.571 508.483, 296.176 512, 313.594 512 C 320.811 512, 324.824 511.379, 332.620 509.058 C 359.786 500.968, 387.185 486.867, 412 468.206 C 423.048 459.898, 448.250 435.863, 454.719 427.465 L 457.827 423.430 447.453 416.014 L 437.080 408.598 436.738 401.549 L 436.397 394.500 436.199 401.676" stroke="none" fill="#f2ce86" fill-rule="evenodd"/><path d="M 83.495 218.500 L 83.500 372.500 170.500 372.508 L 257.500 372.516 170.753 372.253 L 84.006 371.989 83.748 218.245 L 83.490 64.500 83.495 218.500 M 211.446 142.500 C 211.447 160.100, 211.583 167.159, 211.749 158.187 C 211.914 149.215, 211.914 134.815, 211.748 126.187 C 211.581 117.559, 211.446 124.900, 211.446 142.500 M 275.446 142.500 C 275.447 160.100, 275.583 167.159, 275.749 158.187 C 275.914 149.215, 275.914 134.815, 275.748 126.187 C 275.581 117.559, 275.446 124.900, 275.446 142.500 M 227.460 142 L 227.500 158.500 243.500 158.500 L 259.500 158.500 259.538 142.249 L 259.577 125.998 259.264 141.999 L 258.950 158 243.500 158 L 228.050 158 227.735 141.750 L 227.421 125.500 227.460 142 M 132.250 135.728 C 134.313 135.944, 137.688 135.944, 139.750 135.728 C 141.813 135.513, 140.125 135.336, 136 135.336 C 131.875 135.336, 130.188 135.513, 132.250 135.728 M 189.229 135.741 L 195.959 136.090 196.251 156.295 L 196.544 176.500 196.772 155.750 L 197 135 189.750 135.196 L 182.500 135.392 189.229 135.741 M 236.432 136.316 C 236.135 137.090, 236.056 140.374, 236.257 143.612 L 236.622 149.500 236.811 142.750 L 237 136 243.454 136 L 249.909 136 250.273 142.250 L 250.637 148.500 250.568 142 L 250.500 135.500 243.736 135.204 C 238.637 134.981, 236.840 135.254, 236.432 136.316 M 58.282 175.110 C 52.171 177.459, 45.088 183.961, 41.912 190.137 C 38.771 196.246, 38.132 207.871, 40.539 215.119 C 42.016 219.563, 44.182 222.388, 53.161 231.577 C 59.122 237.677, 64 242.969, 64 243.335 C 64 243.701, 63.212 244.004, 62.250 244.010 C 58.615 244.030, 50.340 248.872, 46.161 253.423 C 38.293 261.992, 35.714 271.430, 38.388 281.869 C 39.253 285.247, 40.722 289.247, 41.652 290.756 C 44.108 294.742, 58.051 308.908, 61.112 310.527 L 63.725 311.909 59.396 316.558 C 51.294 325.258, 48.822 338.105, 53.068 349.452 C 54.553 353.421, 57.258 357.235, 62.672 362.989 C 66.817 367.395, 70.611 371, 71.104 371 C 71.626 371, 72 329.682, 72 272 L 72 173 67.750 173.052 C 65.412 173.081, 61.152 174.007, 58.282 175.110 M 135.400 188.500 C 135.401 196.750, 135.556 199.992, 135.744 195.704 C 135.932 191.417, 135.931 184.667, 135.742 180.704 C 135.552 176.742, 135.399 180.250, 135.400 188.500 M 261.454 185.734 L 274.910 186.056 275.273 192.278 L 275.637 198.500 275.568 192 L 275.500 185.500 261.749 185.456 L 247.997 185.412 261.454 185.734 M 215.954 186.733 L 228.910 187.057 229.285 193.779 L 229.660 200.500 229.580 193.500 L 229.500 186.500 216.249 186.455 L 202.997 186.409 215.954 186.733 M 169.336 196 C 169.336 200.125, 169.513 201.813, 169.728 199.750 C 169.944 197.688, 169.944 194.313, 169.728 192.250 C 169.513 190.188, 169.336 191.875, 169.336 196 M 205.728 200.722 C 207.503 200.943, 210.653 200.946, 212.728 200.730 C 214.802 200.513, 213.350 200.333, 209.500 200.328 C 205.650 200.324, 203.952 200.501, 205.728 200.722 M 189.705 202.726 L 195.911 203.089 196.205 209.795 L 196.500 216.500 203 216.568 L 209.500 216.637 203.295 216.274 L 197.089 215.911 196.795 209.205 L 196.500 202.500 190 202.432 L 183.500 202.363 189.705 202.726 M 261.415 215.362 C 261.127 216.111, 261.056 219.374, 261.257 222.612 L 261.622 228.500 261.811 221.796 L 262 215.091 268.750 214.742 L 275.500 214.392 268.719 214.196 C 263.777 214.053, 261.795 214.370, 261.415 215.362 M 130.250 217.747 C 137.263 217.919, 148.738 217.919, 155.750 217.747 C 162.763 217.575, 157.025 217.435, 143 217.435 C 128.975 217.435, 123.238 217.575, 130.250 217.747 M 236.750 224.706 C 237.988 224.944, 240.012 224.944, 241.250 224.706 C 242.488 224.467, 241.475 224.272, 239 224.272 C 236.525 224.272, 235.512 224.467, 236.750 224.706 M 307.012 249.966 L 307 276.432 301.250 270.992 C 298.087 268, 306.140 276.273, 319.144 289.377 C 339.970 310.362, 343.070 313.120, 345.144 312.514 C 347.929 311.701, 351 308.411, 351 306.241 C 351 305.395, 344.250 297.862, 336 289.500 L 321 274.297 321 256.403 L 321 238.510 359.058 276.505 C 379.990 297.402, 400.219 318.130, 404.011 322.567 C 412.144 332.082, 420.591 345.214, 424.507 354.429 C 426.049 358.056, 427.498 360.835, 427.728 360.605 C 428.638 359.696, 420.596 344.078, 414.319 334.563 C 408.505 325.752, 401.420 318.219, 357.352 274 L 307.024 223.500 307.012 249.966 M 196.336 237 C 196.336 241.125, 196.513 242.813, 196.728 240.750 C 196.944 238.688, 196.944 235.313, 196.728 233.250 C 196.513 231.188, 196.336 232.875, 196.336 237 M 127.750 233.744 C 132.287 233.929, 139.713 233.929, 144.250 233.744 C 148.787 233.559, 145.075 233.407, 136 233.407 C 126.925 233.407, 123.213 233.559, 127.750 233.744 M 132.250 256.728 C 134.313 256.944, 137.688 256.944, 139.750 256.728 C 141.813 256.513, 140.125 256.336, 136 256.336 C 131.875 256.336, 130.188 256.513, 132.250 256.728 M 186.250 257.728 C 188.313 257.944, 191.688 257.944, 193.750 257.728 C 195.813 257.513, 194.125 257.336, 190 257.336 C 185.875 257.336, 184.188 257.513, 186.250 257.728 M 119.750 281.748 C 128.688 281.914, 143.313 281.914, 152.250 281.748 C 161.188 281.582, 153.875 281.447, 136 281.447 C 118.125 281.447, 110.813 281.582, 119.750 281.748 M 428.019 362.250 C 428.119 363.572, 432.858 377.214, 432.919 376.355 C 433.027 374.824, 429.044 362, 428.460 362 C 428.207 362, 428.009 362.113, 428.019 362.250 M 433.218 379.500 C 433.228 380.600, 433.580 382.850, 434 384.500 C 434.686 387.195, 434.765 387.246, 434.782 385 C 434.792 383.625, 434.440 381.375, 434 380 C 433.373 378.041, 433.203 377.933, 433.218 379.500 M 435.232 391 C 435.232 392.925, 435.438 393.712, 435.689 392.750 C 435.941 391.788, 435.941 390.212, 435.689 389.250 C 435.438 388.288, 435.232 389.075, 435.232 391 M 436.199 401.676 L 436 408.851 446.021 416.114 C 451.532 420.108, 455.920 423.696, 455.771 424.088 C 455.622 424.480, 451.900 428.929, 447.500 433.975 C 433.102 450.487, 412.077 468.169, 391.349 481.197 L 381.622 487.310 368.871 486.176 C 353.064 484.770, 343.467 482.849, 330.144 478.424 C 306.709 470.641, 286.871 456.921, 271.692 438 C 270.148 436.075, 269.160 435.059, 269.497 435.743 C 269.981 436.726, 256.109 437.040, 203.160 437.243 L 136.210 437.500 195.557 468.467 C 228.198 485.499, 258.053 500.691, 261.901 502.227 C 277.571 508.483, 296.176 512, 313.594 512 C 320.811 512, 324.824 511.379, 332.620 509.058 C 359.786 500.968, 387.185 486.867, 412 468.206 C 423.048 459.898, 448.250 435.863, 454.719 427.465 L 457.827 423.430 447.453 416.014 L 437.080 408.598 436.738 401.549 L 436.397 394.500 436.199 401.676" stroke="none" fill="#f2ce86" fill-rule="evenodd"/><path d="M 182.914 385.897 C 176.662 387.933, 171.664 393.088, 169.963 399.254 L 169.068 402.500 171.066 400 C 175.480 394.480, 177.350 392.983, 181.092 391.975 C 189.750 389.644, 197.746 394.877, 200.618 404.757 C 202.228 410.297, 201.917 414.574, 199.481 420.366 C 198.050 423.771, 202.743 420.346, 205.764 415.780 C 208.049 412.328, 208.500 410.561, 208.500 405.073 C 208.500 397.297, 205.968 392.331, 199.985 388.372 C 195.885 385.658, 187.418 384.431, 182.914 385.897" stroke="none" fill="#4d4e5f" fill-rule="evenodd"/><path d="M 83.495 218.500 L 83.500 372.500 170.500 372.508 L 257.500 372.516 170.753 372.253 L 84.006 371.989 83.748 218.245 L 83.490 64.500 83.495 218.500 M 211.446 142.500 C 211.447 160.100, 211.583 167.159, 211.749 158.187 C 211.914 149.215, 211.914 134.815, 211.748 126.187 C 211.581 117.559, 211.446 124.900, 211.446 142.500 M 275.446 142.500 C 275.447 160.100, 275.583 167.159, 275.749 158.187 C 275.914 149.215, 275.914 134.815, 275.748 126.187 C 275.581 117.559, 275.446 124.900, 275.446 142.500 M 227.460 142 L 227.500 158.500 243.500 158.500 L 259.500 158.500 259.538 142.249 L 259.577 125.998 259.264 141.999 L 258.950 158 243.500 158 L 228.050 158 227.735 141.750 L 227.421 125.500 227.460 142 M 132.250 135.728 C 134.313 135.944, 137.688 135.944, 139.750 135.728 C 141.813 135.513, 140.125 135.336, 136 135.336 C 131.875 135.336, 130.188 135.513, 132.250 135.728 M 189.229 135.741 L 195.959 136.090 196.251 156.295 L 196.544 176.500 196.772 155.750 L 197 135 189.750 135.196 L 182.500 135.392 189.229 135.741 M 236.432 136.316 C 236.135 137.090, 236.056 140.374, 236.257 143.612 L 236.622 149.500 236.811 142.750 L 237 136 243.454 136 L 249.909 136 250.273 142.250 L 250.637 148.500 250.568 142 L 250.500 135.500 243.736 135.204 C 238.637 134.981, 236.840 135.254, 236.432 136.316 M 58.282 175.110 C 52.171 177.459, 45.088 183.961, 41.912 190.137 C 38.771 196.246, 38.132 207.871, 40.539 215.119 C 42.016 219.563, 44.182 222.388, 53.161 231.577 C 59.122 237.677, 64 242.969, 64 243.335 C 64 243.701, 63.212 244.004, 62.250 244.010 C 58.615 244.030, 50.340 248.872, 46.161 253.423 C 38.293 261.992, 35.714 271.430, 38.388 281.869 C 39.253 285.247, 40.722 289.247, 41.652 290.756 C 44.108 294.742, 58.051 308.908, 61.112 310.527 L 63.725 311.909 59.396 316.558 C 51.294 325.258, 48.822 338.105, 53.068 349.452 C 54.553 353.421, 57.258 357.235, 62.672 362.989 C 66.817 367.395, 70.611 371, 71.104 371 C 71.626 371, 72 329.682, 72 272 L 72 173 67.750 173.052 C 65.412 173.081, 61.152 174.007, 58.282 175.110 M 135.400 188.500 C 135.401 196.750, 135.556 199.992, 135.744 195.704 C 135.932 191.417, 135.931 184.667, 135.742 180.704 C 135.552 176.742, 135.399 180.250, 135.400 188.500 M 261.454 185.734 L 274.910 186.056 275.273 192.278 L 275.637 198.500 275.568 192 L 275.500 185.500 261.749 185.456 L 247.997 185.412 261.454 185.734 M 215.954 186.733 L 228.910 187.057 229.285 193.779 L 229.660 200.500 229.580 193.500 L 229.500 186.500 216.249 186.455 L 202.997 186.409 215.954 186.733 M 169.336 196 C 169.336 200.125, 169.513 201.813, 169.728 199.750 C 169.944 197.688, 169.944 194.313, 169.728 192.250 C 169.513 190.188, 169.336 191.875, 169.336 196 M 205.728 200.722 C 207.503 200.943, 210.653 200.946, 212.728 200.730 C 214.802 200.513, 213.350 200.333, 209.500 200.328 C 205.650 200.324, 203.952 200.501, 205.728 200.722 M 189.705 202.726 L 195.911 203.089 196.205 209.795 L 196.500 216.500 203 216.568 L 209.500 216.637 203.295 216.274 L 197.089 215.911 196.795 209.205 L 196.500 202.500 190 202.432 L 183.500 202.363 189.705 202.726 M 261.415 215.362 C 261.127 216.111, 261.056 219.374, 261.257 222.612 L 261.622 228.500 261.811 221.796 L 262 215.091 268.750 214.742 L 275.500 214.392 268.719 214.196 C 263.777 214.053, 261.795 214.370, 261.415 215.362 M 130.250 217.747 C 137.263 217.919, 148.738 217.919, 155.750 217.747 C 162.763 217.575, 157.025 217.435, 143 217.435 C 128.975 217.435, 123.238 217.575, 130.250 217.747 M 236.750 224.706 C 237.988 224.944, 240.012 224.944, 241.250 224.706 C 242.488 224.467, 241.475 224.272, 239 224.272 C 236.525 224.272, 235.512 224.467, 236.750 224.706 M 307.012 249.966 L 307 276.432 301.250 270.992 C 298.087 268, 306.140 276.273, 319.144 289.377 C 339.970 310.362, 343.070 313.120, 345.144 312.514 C 347.929 311.701, 351 308.411, 351 306.241 C 351 305.395, 344.250 297.862, 336 289.500 L 321 274.297 321 256.403 L 321 238.510 359.058 276.505 C 379.990 297.402, 400.219 318.130, 404.011 322.567 C 412.144 332.082, 420.591 345.214, 424.507 354.429 C 426.049 358.056, 427.498 360.835, 427.728 360.605 C 428.638 359.696, 420.596 344.078, 414.319 334.563 C 408.505 325.752, 401.420 318.219, 357.352 274 L 307.024 223.500 307.012 249.966 M 196.336 237 C 196.336 241.125, 196.513 242.813, 196.728 240.750 C 196.944 238.688, 196.944 235.313, 196.728 233.250 C 196.513 231.188, 196.336 232.875, 196.336 237 M 127.750 233.744 C 132.287 233.929, 139.713 233.929, 144.250 233.744 C 148.787 233.559, 145.075 233.407, 136 233.407 C 126.925 233.407, 123.213 233.559, 127.750 233.744 M 132.250 256.728 C 134.313 256.944, 137.688 256.944, 139.750 256.728 C 141.813 256.513, 140.125 256.336, 136 256.336 C 131.875 256.336, 130.188 256.513, 132.250 256.728 M 186.250 257.728 C 188.313 257.944, 191.688 257.944, 193.750 257.728 C 195.813 257.513, 194.125 257.336, 190 257.336 C 185.875 257.336, 184.188 257.513, 186.250 257.728 M 119.750 281.748 C 128.688 281.914, 143.313 281.914, 152.250 281.748 C 161.188 281.582, 153.875 281.447, 136 281.447 C 118.125 281.447, 110.813 281.582, 119.750 281.748 M 428.019 362.250 C 428.119 363.572, 432.858 377.214, 432.919 376.355 C 433.027 374.824, 429.044 362, 428.460 362 C 428.207 362, 428.009 362.113, 428.019 362.250 M 433.218 379.500 C 433.228 380.600, 433.580 382.850, 434 384.500 C 434.686 387.195, 434.765 387.246, 434.782 385 C 434.792 383.625, 434.440 381.375, 434 380 C 433.373 378.041, 433.203 377.933, 433.218 379.500 M 435.232 391 C 435.232 392.925, 435.438 393.712, 435.689 392.750 C 435.941 391.788, 435.941 390.212, 435.689 389.250 C 435.438 388.288, 435.232 389.075, 435.232 391 M 436.199 401.676 L 436 408.851 446.021 416.114 C 451.532 420.108, 455.920 423.696, 455.771 424.088 C 455.622 424.480, 451.900 428.929, 447.500 433.975 C 433.102 450.487, 412.077 468.169, 391.349 481.197 L 381.622 487.310 368.871 486.176 C 353.064 484.770, 343.467 482.849, 330.144 478.424 C 306.709 470.641, 286.871 456.921, 271.692 438 C 270.148 436.075, 269.160 435.059, 269.497 435.743 C 269.981 436.726, 256.109 437.040, 203.160 437.243 L 136.210 437.500 195.557 468.467 C 228.198 485.499, 258.053 500.691, 261.901 502.227 C 277.571 508.483, 296.176 512, 313.594 512 C 320.811 512, 324.824 511.379, 332.620 509.058 C 359.786 500.968, 387.185 486.867, 412 468.206 C 423.048 459.898, 448.250 435.863, 454.719 427.465 L 457.827 423.430 447.453 416.014 L 437.080 408.598 436.738 401.549 L 436.397 394.500 436.199 401.676" stroke="none" fill="#f2ce86" fill-rule="evenodd"/><path d="M 84 218.505 L 84 372.011 171.160 371.755 L 258.320 371.500 261.389 364.500 C 264.060 358.409, 264.461 356.332, 264.479 348.500 C 264.513 334.034, 263.330 332.251, 233.974 302.500 C 211.736 279.963, 209.094 276.930, 207.153 271.712 C 204.650 264.985, 204.307 253.687, 206.426 247.750 L 207.764 244 202.382 244 L 197 244 197 251 L 197 258 190 258 L 183 258 183 251 L 183 244 189.500 244 L 196 244 196 237 L 196 230 189.500 230 L 183 230 183 216.500 L 183 203 176 203 L 169 203 169 196 L 169 189 176 189 L 183 189 183 195.500 L 183 202 190 202 L 197 202 197 208.954 L 197 215.909 203.750 216.204 L 210.500 216.500 210.784 227.315 L 211.069 238.130 215.645 233.618 C 218.162 231.137, 222.195 228.295, 224.607 227.303 L 228.993 225.500 228.996 219.750 L 229 214 222 214 L 215 214 215 207.500 L 215 201 208.500 201 L 202 201 202 193.472 L 202 185.944 215.750 186.222 L 229.500 186.500 229.796 193.250 L 230.091 200 236.546 200 L 243 200 243 211.881 L 243 223.763 247.634 224.930 C 256.280 227.107, 260.474 230.242, 278.250 247.824 L 296 265.380 296 165.190 L 296 65 190 65 L 84 65 84 218.505 M 104 142 L 104 174 119.500 174 L 135 174 135 188.500 L 135 203 142 203 L 149 203 149 188.500 L 149 174 158.500 174 L 168 174 168 142 L 168 110 136 110 L 104 110 104 142 M 211 142 L 211 174 243.500 174 L 276 174 276 142 L 276 110 243.500 110 L 211 110 211 142 M 120 142 L 120 158 136 158 L 152 158 152 142 L 152 126 136 126 L 120 126 120 142 M 228 142 L 228 158 243.500 158 L 259 158 259 142 L 259 126 243.500 126 L 228 126 228 142 M 129 142 L 129 149 136 149 L 143 149 143 142 L 143 135 136 135 L 129 135 129 142 M 183 155.500 L 183 176 190 176 L 197 176 197 155.500 L 197 135 190 135 L 183 135 183 155.500 M 236 142 L 236 149 243.500 149 L 251 149 251 142 L 251 135 243.500 135 L 236 135 236 142 M 248 192 L 248 199 262 199 L 276 199 276 192 L 276 185 262 185 L 248 185 248 192 M 104 235.500 L 104 282 136 282 L 168 282 168 249.500 L 168 217 143 217 L 118 217 118 203 L 118 189 111 189 L 104 189 104 235.500 M 261 221.500 L 261 229 268 229 L 275 229 275 221.500 L 275 214 268 214 L 261 214 261 221.500 M 120 249.500 L 120 265 136 265 L 152 265 152 249.500 L 152 234 136 234 L 120 234 120 249.500 M 232 241.249 C 229.525 242.571, 226.171 245.541, 224.546 247.847 C 218.475 256.466, 220.625 270.244, 228.898 275.742 C 235.434 280.086, 239.903 278.294, 251.077 266.851 C 259.371 258.358, 261.248 253.840, 258.702 248.502 C 254.675 240.056, 241.121 236.375, 232 241.249 M 129 249.500 L 129 257 136 257 L 143 257 143 249.500 L 143 242 136 242 L 129 242 129 249.500 M 245 249 C 242.525 251.475, 242.513 252.178, 244.895 255.119 C 246.525 257.131, 247.191 257.320, 249.645 256.461 C 253.032 255.277, 254.001 251.144, 251.483 248.626 C 249.323 246.466, 247.425 246.575, 245 249" stroke="none" fill="#f9eed7" fill-rule="evenodd"/><path d="M 245 249 C 242.525 251.475, 242.513 252.178, 244.895 255.119 C 246.525 257.131, 247.191 257.320, 249.645 256.461 C 253.032 255.277, 254.001 251.144, 251.483 248.626 C 249.323 246.466, 247.425 246.575, 245 249" stroke="none" fill="#fcf8f2" fill-rule="evenodd"/><path d="M 84 218.505 L 84 372.011 171.160 371.755 L 258.320 371.500 261.389 364.500 C 264.060 358.409, 264.461 356.332, 264.479 348.500 C 264.513 334.034, 263.330 332.251, 233.974 302.500 C 211.736 279.963, 209.094 276.930, 207.153 271.712 C 204.650 264.985, 204.307 253.687, 206.426 247.750 L 207.764 244 202.382 244 L 197 244 197 251 L 197 258 190 258 L 183 258 183 251 L 183 244 189.500 244 L 196 244 196 237 L 196 230 189.500 230 L 183 230 183 216.500 L 183 203 176 203 L 169 203 169 196 L 169 189 176 189 L 183 189 183 195.500 L 183 202 190 202 L 197 202 197 208.954 L 197 215.909 203.750 216.204 L 210.500 216.500 210.784 227.315 L 211.069 238.130 215.645 233.618 C 218.162 231.137, 222.195 228.295, 224.607 227.303 L 228.993 225.500 228.996 219.750 L 229 214 222 214 L 215 214 215 207.500 L 215 201 208.500 201 L 202 201 202 193.472 L 202 185.944 215.750 186.222 L 229.500 186.500 229.796 193.250 L 230.091 200 236.546 200 L 243 200 243 211.881 L 243 223.763 247.634 224.930 C 256.280 227.107, 260.474 230.242, 278.250 247.824 L 296 265.380 296 165.190 L 296 65 190 65 L 84 65 84 218.505 M 104 142 L 104 174 119.500 174 L 135 174 135 188.500 L 135 203 142 203 L 149 203 149 188.500 L 149 174 158.500 174 L 168 174 168 142 L 168 110 136 110 L 104 110 104 142 M 211 142 L 211 174 243.500 174 L 276 174 276 142 L 276 110 243.500 110 L 211 110 211 142 M 120 142 L 120 158 136 158 L 152 158 152 142 L 152 126 136 126 L 120 126 120 142 M 228 142 L 228 158 243.500 158 L 259 158 259 142 L 259 126 243.500 126 L 228 126 228 142 M 129 142 L 129 149 136 149 L 143 149 143 142 L 143 135 136 135 L 129 135 129 142 M 183 155.500 L 183 176 190 176 L 197 176 197 155.500 L 197 135 190 135 L 183 135 183 155.500 M 236 142 L 236 149 243.500 149 L 251 149 251 142 L 251 135 243.500 135 L 236 135 236 142 M 248 192 L 248 199 262 199 L 276 199 276 192 L 276 185 262 185 L 248 185 248 192 M 104 235.500 L 104 282 136 282 L 168 282 168 249.500 L 168 217 143 217 L 118 217 118 203 L 118 189 111 189 L 104 189 104 235.500 M 261 221.500 L 261 229 268 229 L 275 229 275 221.500 L 275 214 268 214 L 261 214 261 221.500 M 120 249.500 L 120 265 136 265 L 152 265 152 249.500 L 152 234 136 234 L 120 234 120 249.500 M 232 241.249 C 229.525 242.571, 226.171 245.541, 224.546 247.847 C 218.475 256.466, 220.625 270.244, 228.898 275.742 C 235.434 280.086, 239.903 278.294, 251.077 266.851 C 259.371 258.358, 261.248 253.840, 258.702 248.502 C 254.675 240.056, 241.121 236.375, 232 241.249 M 129 249.500 L 129 257 136 257 L 143 257 143 249.500 L 143 242 136 242 L 129 242 129 249.500 M 245 249 C 242.525 251.475, 242.513 252.178, 244.895 255.119 C 246.525 257.131, 247.191 257.320, 249.645 256.461 C 253.032 255.277, 254.001 251.144, 251.483 248.626 C 249.323 246.466, 247.425 246.575, 245 249" stroke="none" fill="#f9eed7" fill-rule="evenodd"/><path d="M 90.316 9.326 C 84.349 11.526, 78.571 16.492, 75.500 22.061 L 72.500 27.500 72 199 C 71.725 293.325, 71.727 380.850, 72.004 393.500 C 72.479 415.202, 72.640 416.754, 74.864 421 C 78.078 427.138, 81.580 430.698, 87.500 433.843 L 92.500 436.500 181.362 436.771 L 270.223 437.042 268.042 433.771 C 256.117 415.887, 251.983 392.558, 257.583 374.756 C 258.101 373.107, 253.345 372.997, 170.816 372.756 L 83.500 372.500 83.247 218.750 L 82.994 65 189.497 65 L 296 65 296 165.284 L 296 265.568 301.380 270.881 L 306.759 276.194 307.459 223.847 C 307.844 195.056, 308.010 139.550, 307.829 100.500 C 307.506 30.774, 307.462 29.418, 305.394 24.949 C 302.399 18.476, 297.715 13.535, 291.759 10.567 L 286.607 8 190.054 8.076 C 118.789 8.132, 92.666 8.460, 90.316 9.326 M 104.681 110.653 C 104.306 111.027, 104 125.433, 104 142.667 L 104 174 120 174 L 136 174 136 188.500 L 136 203 142.500 203 L 149 203 149 188.500 L 149 174 158.514 174 L 168.028 174 167.764 142.250 L 167.500 110.500 136.431 110.236 C 119.343 110.091, 105.055 110.278, 104.681 110.653 M 212 142 L 212 174 243.500 174 L 275 174 275 142 L 275 110 243.500 110 L 212 110 212 142 M 120 142 L 120 158 136 158 L 152 158 152 142 L 152 126 136 126 L 120 126 120 142 M 227.225 142.250 L 227.500 158.500 243.500 158.500 L 259.500 158.500 259.775 142.250 L 260.050 126 243.500 126 L 226.950 126 227.225 142.250 M 129 142.500 L 129 149 136 149 L 143 149 143 142.500 L 143 136 136 136 L 129 136 129 142.500 M 183 156 L 183 176 189.500 176 L 196 176 196 156 L 196 136 189.500 136 L 183 136 183 156 M 237 142.500 L 237 149 243.500 149 L 250 149 250 142.500 L 250 136 243.500 136 L 237 136 237 142.500 M 248 192.500 L 248 199 261.500 199 L 275 199 275 192.500 L 275 186 261.500 186 L 248 186 248 192.500 M 202 193.500 L 202 200 209 200 L 216 200 216 207 L 216 214 222.500 214 L 229 214 229 219.636 L 229 225.272 233.640 224.636 C 236.191 224.286, 239.341 224, 240.640 224 C 242.989 224, 243 223.944, 243 212 L 243 200 236 200 L 229 200 229 193.500 L 229 187 215.500 187 L 202 187 202 193.500 M 104 235 L 104 281 136 281 L 168 281 168 249.500 L 168 218 143 218 L 118 218 118 203.500 L 118 189 111 189 L 104 189 104 235 M 170 196 L 170 203 176.500 203 L 183 203 183 216.500 L 183 230 190 230 L 197 230 197 237 L 197 244 190 244 L 183 244 183 250.500 L 183 257 190 257 L 197 257 197 250.500 L 197 244 202.300 244 C 205.215 244, 208.140 243.460, 208.800 242.800 C 209.603 241.997, 210 237.543, 210 229.346 L 210 217.091 203.250 216.796 L 196.500 216.500 196.204 209.750 L 195.909 203 189.454 203 L 183 203 183 196 L 183 189 176.500 189 L 170 189 170 196 M 262 221.500 L 262 228 268.500 228 L 275 228 275 221.500 L 275 215 268.500 215 L 262 215 262 221.500 M 120 249.500 L 120 266 136 266 L 152 266 152 249.500 L 152 233 136 233 L 120 233 120 249.500 M 129 249.500 L 129 256 136 256 L 143 256 143 249.500 L 143 243 136 243 L 129 243 129 249.500 M 182.914 385.897 C 176.662 387.933, 171.664 393.088, 169.963 399.254 L 169.068 402.500 171.066 400 C 175.480 394.480, 177.350 392.983, 181.092 391.975 C 189.750 389.644, 197.746 394.877, 200.618 404.757 C 202.228 410.297, 201.917 414.574, 199.481 420.366 C 198.050 423.771, 202.743 420.346, 205.764 415.780 C 208.049 412.328, 208.500 410.561, 208.500 405.073 C 208.500 397.297, 205.968 392.331, 199.985 388.372 C 195.885 385.658, 187.418 384.431, 182.914 385.897" stroke="none" fill="#5c5e70" fill-rule="evenodd"/><path d="" stroke="none" fill="#000000" fill-rule="evenodd"/><path d="M 215.328 207.500 C 215.333 211.350, 215.513 212.802, 215.730 210.728 C 215.946 208.653, 215.943 205.503, 215.722 203.728 C 215.501 201.952, 215.324 203.650, 215.328 207.500 M 210.340 229.583 C 210.310 240.664, 210.113 241.928, 207.961 244.838 C 204.409 249.643, 203.949 263.208, 207.057 271.500 C 209.110 276.976, 211.462 279.684, 233.974 302.500 C 263.328 332.249, 264.511 334.033, 264.482 348.500 C 264.466 356.342, 264.068 358.400, 261.388 364.500 C 255.539 377.810, 253.939 396.407, 257.472 410 C 264.969 438.840, 294.402 466.553, 330.144 478.424 C 343.467 482.849, 353.064 484.770, 368.871 486.176 L 381.622 487.310 391.349 481.197 C 412.077 468.169, 433.102 450.487, 447.500 433.975 C 451.900 428.929, 455.622 424.480, 455.771 424.088 C 455.920 423.696, 451.532 420.108, 446.021 416.114 L 436 408.851 436 402.557 C 436 383.282, 427.507 356.495, 415.480 337.837 C 407.813 325.943, 399.201 316.581, 359.058 276.505 L 321 238.510 321 256.403 L 321 274.297 336 289.500 C 344.250 297.862, 351 305.395, 351 306.241 C 351 308.448, 347.913 311.705, 345.015 312.555 C 342.755 313.218, 339.533 310.244, 309.515 279.793 C 291.357 261.373, 275.684 246.013, 274.687 245.658 C 273.689 245.304, 273.122 244.611, 273.427 244.119 C 274.190 242.884, 260.866 230.482, 256.256 228.135 C 249.554 224.725, 245.806 224.174, 236.001 225.157 C 225.431 226.217, 221.228 228.007, 215.233 234.002 L 211.069 238.166 210.720 227.833 L 210.372 217.500 210.340 229.583 M 264.250 228.728 C 266.313 228.944, 269.688 228.944, 271.750 228.728 C 273.813 228.513, 272.125 228.336, 268 228.336 C 263.875 228.336, 262.188 228.513, 264.250 228.728 M 232 241.249 C 229.525 242.571, 226.171 245.541, 224.546 247.847 C 218.475 256.466, 220.625 270.244, 228.898 275.742 C 235.434 280.086, 239.903 278.294, 251.077 266.851 C 259.371 258.358, 261.248 253.840, 258.702 248.502 C 254.675 240.056, 241.121 236.375, 232 241.249 M 132.250 242.728 C 134.313 242.944, 137.688 242.944, 139.750 242.728 C 141.813 242.513, 140.125 242.336, 136 242.336 C 131.875 242.336, 130.188 242.513, 132.250 242.728 M 127.750 265.744 C 132.287 265.929, 139.713 265.929, 144.250 265.744 C 148.787 265.559, 145.075 265.407, 136 265.407 C 126.925 265.407, 123.213 265.559, 127.750 265.744" stroke="none" fill="#fae0ac" fill-rule="evenodd"/><path d="M 296.032 13.194 C 301.645 17.475, 305.683 23.998, 306.983 30.886 C 307.627 34.297, 308 70.803, 308 130.390 L 308 224.508 355.080 271.504 C 409.699 326.026, 415.502 332.820, 424.989 353.354 C 431.785 368.064, 436.942 389.333, 437.026 403 L 437.060 408.500 447.046 415.750 C 452.539 419.737, 457.415 423, 457.882 423 C 458.349 423, 462.122 418.163, 466.265 412.250 C 489.545 379.032, 503.657 344.630, 510.033 305.555 C 512.895 288.012, 512.895 239.988, 510.033 222.445 C 497.222 143.932, 448.507 75.773, 377.972 37.674 C 354.643 25.074, 321.318 13.954, 296.553 10.507 L 291.606 9.818 296.032 13.194 M 63.413 95.750 C 31.980 131.653, 11.203 176.482, 3.278 225.500 C 0.749 241.147, 0.756 286.715, 3.291 302.500 C 11.876 355.971, 35.261 403.229, 72 441.355 C 101.944 472.429, 135.974 493.978, 176.460 507.505 L 189.915 512 245.708 511.873 C 280.401 511.794, 299.074 511.432, 295.084 510.916 C 272.803 508.031, 264.804 504.624, 197 469.152 L 136.500 437.500 114.500 436.993 C 93.101 436.499, 92.363 436.413, 87.500 433.836 C 81.585 430.702, 78.083 427.145, 74.860 421 C 72.624 416.736, 72.483 415.350, 72.178 394.555 L 71.856 372.610 63.515 363.845 C 57.272 357.285, 54.648 353.676, 53.087 349.502 C 48.820 338.098, 51.365 324.828, 59.436 316.406 C 61.757 313.983, 63.264 312, 62.784 312 C 62.303 312, 57.657 307.885, 52.458 302.856 C 40.394 291.185, 37.510 285.793, 37.563 275.006 C 37.607 265.877, 40.141 259.532, 46.298 253.133 C 50.439 248.829, 58.832 244.029, 62.250 244.010 C 63.212 244.004, 64 243.701, 64 243.335 C 64 242.969, 59.122 237.677, 53.161 231.577 C 40.825 218.952, 38.788 214.917, 38.878 203.274 C 38.999 187.440, 52.895 173, 68.011 173 L 72 173 72 130 C 72 106.350, 71.791 87, 71.537 87 C 71.282 87, 67.626 90.938, 63.413 95.750" stroke="none" fill="#3557af" fill-rule="evenodd"/></svg>